<svg id="Grupo_3193" data-name="Grupo 3193" xmlns="http://www.w3.org/2000/svg" width="36.436" height="36.436" viewBox="0 0 36.436 36.436">
  <path id="Trazado_817" data-name="Trazado 817" d="M31.046,18.218A18.217,18.217,0,0,0,0,5.283L25.763,31.046a18.16,18.16,0,0,0,5.283-12.828" transform="translate(5.39)" fill="#00aeef"/>
  <path id="Trazado_818" data-name="Trazado 818" d="M0,12.935A18.217,18.217,0,0,0,31.153,25.763L5.39,0A18.162,18.162,0,0,0,0,12.935" transform="translate(0 5.283)" fill="#008fc4"/>
  <path id="Trazado_819" data-name="Trazado 819" d="M4.2,16.346a4.086,4.086,0,0,1,3.011,1.266,4.2,4.2,0,0,1,.008,5.981,4.152,4.152,0,0,1-3.012,1.22A4.057,4.057,0,0,1,0,20.607a4.127,4.127,0,0,1,1.229-3.021,4.187,4.187,0,0,1,2.97-1.24M7.632,1.882,7.538,13.247A1.867,1.867,0,0,1,5.671,15.1H3.016a1.867,1.867,0,0,1-1.866-1.821L.868,1.913A1.867,1.867,0,0,1,2.734,0H5.765A1.867,1.867,0,0,1,7.632,1.882" transform="translate(22.964 30.019) rotate(180)" fill="#fff"/>
</svg>
